G04 #@! TF.GenerationSoftware,KiCad,Pcbnew,(5.1.5)-3*
G04 #@! TF.CreationDate,2020-07-08T16:56:31+02:00*
G04 #@! TF.ProjectId,SA-ADC,53412d41-4443-42e6-9b69-6361645f7063,v0.2*
G04 #@! TF.SameCoordinates,Original*
G04 #@! TF.FileFunction,Soldermask,Bot*
G04 #@! TF.FilePolarity,Negative*
%FSLAX46Y46*%
G04 Gerber Fmt 4.6, Leading zero omitted, Abs format (unit mm)*
G04 Created by KiCad (PCBNEW (5.1.5)-3) date 2020-07-08 16:56:31*
%MOMM*%
%LPD*%
G04 APERTURE LIST*
%ADD10C,0.100000*%
G04 APERTURE END LIST*
D10*
G36*
X99059239Y-108571467D02*
G01*
X99373282Y-108633934D01*
X99964926Y-108879001D01*
X100497392Y-109234784D01*
X100950216Y-109687608D01*
X101305999Y-110220074D01*
X101551066Y-110811718D01*
X101571965Y-110916784D01*
X101676000Y-111439803D01*
X101676000Y-112080197D01*
X101613533Y-112394239D01*
X101551066Y-112708282D01*
X101305999Y-113299926D01*
X100950216Y-113832392D01*
X100497392Y-114285216D01*
X99964926Y-114640999D01*
X99373282Y-114886066D01*
X99059239Y-114948533D01*
X98745197Y-115011000D01*
X98104803Y-115011000D01*
X97790761Y-114948533D01*
X97476718Y-114886066D01*
X96885074Y-114640999D01*
X96352608Y-114285216D01*
X95899784Y-113832392D01*
X95544001Y-113299926D01*
X95298934Y-112708282D01*
X95236467Y-112394239D01*
X95174000Y-112080197D01*
X95174000Y-111439803D01*
X95278035Y-110916784D01*
X95298934Y-110811718D01*
X95544001Y-110220074D01*
X95899784Y-109687608D01*
X96352608Y-109234784D01*
X96885074Y-108879001D01*
X97476718Y-108633934D01*
X97790761Y-108571467D01*
X98104803Y-108509000D01*
X98745197Y-108509000D01*
X99059239Y-108571467D01*
G37*
G36*
X188073512Y-112133927D02*
G01*
X188222812Y-112163624D01*
X188386784Y-112231544D01*
X188534354Y-112330147D01*
X188659853Y-112455646D01*
X188758456Y-112603216D01*
X188826376Y-112767188D01*
X188861000Y-112941259D01*
X188861000Y-113118741D01*
X188826376Y-113292812D01*
X188758456Y-113456784D01*
X188659853Y-113604354D01*
X188534354Y-113729853D01*
X188386784Y-113828456D01*
X188222812Y-113896376D01*
X188073512Y-113926073D01*
X188048742Y-113931000D01*
X187871258Y-113931000D01*
X187846488Y-113926073D01*
X187697188Y-113896376D01*
X187533216Y-113828456D01*
X187385646Y-113729853D01*
X187260147Y-113604354D01*
X187161544Y-113456784D01*
X187093624Y-113292812D01*
X187059000Y-113118741D01*
X187059000Y-112941259D01*
X187093624Y-112767188D01*
X187161544Y-112603216D01*
X187260147Y-112455646D01*
X187385646Y-112330147D01*
X187533216Y-112231544D01*
X187697188Y-112163624D01*
X187846488Y-112133927D01*
X187871258Y-112129000D01*
X188048742Y-112129000D01*
X188073512Y-112133927D01*
G37*
G36*
X188073512Y-109593927D02*
G01*
X188222812Y-109623624D01*
X188386784Y-109691544D01*
X188534354Y-109790147D01*
X188659853Y-109915646D01*
X188758456Y-110063216D01*
X188826376Y-110227188D01*
X188861000Y-110401259D01*
X188861000Y-110578741D01*
X188826376Y-110752812D01*
X188758456Y-110916784D01*
X188659853Y-111064354D01*
X188534354Y-111189853D01*
X188386784Y-111288456D01*
X188222812Y-111356376D01*
X188073512Y-111386073D01*
X188048742Y-111391000D01*
X187871258Y-111391000D01*
X187846488Y-111386073D01*
X187697188Y-111356376D01*
X187533216Y-111288456D01*
X187385646Y-111189853D01*
X187260147Y-111064354D01*
X187161544Y-110916784D01*
X187093624Y-110752812D01*
X187059000Y-110578741D01*
X187059000Y-110401259D01*
X187093624Y-110227188D01*
X187161544Y-110063216D01*
X187260147Y-109915646D01*
X187385646Y-109790147D01*
X187533216Y-109691544D01*
X187697188Y-109623624D01*
X187846488Y-109593927D01*
X187871258Y-109589000D01*
X188048742Y-109589000D01*
X188073512Y-109593927D01*
G37*
G36*
X188073512Y-107053927D02*
G01*
X188222812Y-107083624D01*
X188386784Y-107151544D01*
X188534354Y-107250147D01*
X188659853Y-107375646D01*
X188758456Y-107523216D01*
X188826376Y-107687188D01*
X188861000Y-107861259D01*
X188861000Y-108038741D01*
X188826376Y-108212812D01*
X188758456Y-108376784D01*
X188659853Y-108524354D01*
X188534354Y-108649853D01*
X188386784Y-108748456D01*
X188222812Y-108816376D01*
X188073512Y-108846073D01*
X188048742Y-108851000D01*
X187871258Y-108851000D01*
X187846488Y-108846073D01*
X187697188Y-108816376D01*
X187533216Y-108748456D01*
X187385646Y-108649853D01*
X187260147Y-108524354D01*
X187161544Y-108376784D01*
X187093624Y-108212812D01*
X187059000Y-108038741D01*
X187059000Y-107861259D01*
X187093624Y-107687188D01*
X187161544Y-107523216D01*
X187260147Y-107375646D01*
X187385646Y-107250147D01*
X187533216Y-107151544D01*
X187697188Y-107083624D01*
X187846488Y-107053927D01*
X187871258Y-107049000D01*
X188048742Y-107049000D01*
X188073512Y-107053927D01*
G37*
G36*
X122533254Y-104067818D02*
G01*
X122906511Y-104222426D01*
X122906513Y-104222427D01*
X123242436Y-104446884D01*
X123528116Y-104732564D01*
X123743196Y-105054453D01*
X123752574Y-105068489D01*
X123907182Y-105441746D01*
X123986000Y-105837993D01*
X123986000Y-106242007D01*
X123907182Y-106638254D01*
X123752574Y-107011511D01*
X123752573Y-107011513D01*
X123528116Y-107347436D01*
X123242436Y-107633116D01*
X122906513Y-107857573D01*
X122906512Y-107857574D01*
X122906511Y-107857574D01*
X122533254Y-108012182D01*
X122137007Y-108091000D01*
X121732993Y-108091000D01*
X121336746Y-108012182D01*
X120963489Y-107857574D01*
X120963488Y-107857574D01*
X120963487Y-107857573D01*
X120627564Y-107633116D01*
X120341884Y-107347436D01*
X120117427Y-107011513D01*
X120117426Y-107011511D01*
X119962818Y-106638254D01*
X119884000Y-106242007D01*
X119884000Y-105837993D01*
X119962818Y-105441746D01*
X120117426Y-105068489D01*
X120126805Y-105054453D01*
X120341884Y-104732564D01*
X120627564Y-104446884D01*
X120963487Y-104222427D01*
X120963489Y-104222426D01*
X121336746Y-104067818D01*
X121732993Y-103989000D01*
X122137007Y-103989000D01*
X122533254Y-104067818D01*
G37*
G36*
X188073512Y-104513927D02*
G01*
X188222812Y-104543624D01*
X188386784Y-104611544D01*
X188534354Y-104710147D01*
X188659853Y-104835646D01*
X188758456Y-104983216D01*
X188826376Y-105147188D01*
X188861000Y-105321259D01*
X188861000Y-105498741D01*
X188826376Y-105672812D01*
X188758456Y-105836784D01*
X188659853Y-105984354D01*
X188534354Y-106109853D01*
X188386784Y-106208456D01*
X188222812Y-106276376D01*
X188073512Y-106306073D01*
X188048742Y-106311000D01*
X187871258Y-106311000D01*
X187846488Y-106306073D01*
X187697188Y-106276376D01*
X187533216Y-106208456D01*
X187385646Y-106109853D01*
X187260147Y-105984354D01*
X187161544Y-105836784D01*
X187093624Y-105672812D01*
X187059000Y-105498741D01*
X187059000Y-105321259D01*
X187093624Y-105147188D01*
X187161544Y-104983216D01*
X187260147Y-104835646D01*
X187385646Y-104710147D01*
X187533216Y-104611544D01*
X187697188Y-104543624D01*
X187846488Y-104513927D01*
X187871258Y-104509000D01*
X188048742Y-104509000D01*
X188073512Y-104513927D01*
G37*
G36*
X103136000Y-105676000D02*
G01*
X101334000Y-105676000D01*
X101334000Y-103874000D01*
X103136000Y-103874000D01*
X103136000Y-105676000D01*
G37*
G36*
X115212395Y-103225546D02*
G01*
X115385466Y-103297234D01*
X115385467Y-103297235D01*
X115541227Y-103401310D01*
X115673690Y-103533773D01*
X115673691Y-103533775D01*
X115777766Y-103689534D01*
X115849454Y-103862605D01*
X115886000Y-104046333D01*
X115886000Y-104233667D01*
X115849454Y-104417395D01*
X115777766Y-104590466D01*
X115777765Y-104590467D01*
X115673690Y-104746227D01*
X115541227Y-104878690D01*
X115462818Y-104931081D01*
X115385466Y-104982766D01*
X115212395Y-105054454D01*
X115028667Y-105091000D01*
X114841333Y-105091000D01*
X114657605Y-105054454D01*
X114484534Y-104982766D01*
X114407182Y-104931081D01*
X114328773Y-104878690D01*
X114196310Y-104746227D01*
X114092235Y-104590467D01*
X114092234Y-104590466D01*
X114020546Y-104417395D01*
X113984000Y-104233667D01*
X113984000Y-104046333D01*
X114020546Y-103862605D01*
X114092234Y-103689534D01*
X114196309Y-103533775D01*
X114196310Y-103533773D01*
X114328773Y-103401310D01*
X114484533Y-103297235D01*
X114484534Y-103297234D01*
X114657605Y-103225546D01*
X114841333Y-103189000D01*
X115028667Y-103189000D01*
X115212395Y-103225546D01*
G37*
G36*
X188064769Y-101972188D02*
G01*
X188222812Y-102003624D01*
X188386784Y-102071544D01*
X188534354Y-102170147D01*
X188659853Y-102295646D01*
X188758456Y-102443216D01*
X188826376Y-102607188D01*
X188861000Y-102781259D01*
X188861000Y-102958741D01*
X188826376Y-103132812D01*
X188758456Y-103296784D01*
X188659853Y-103444354D01*
X188534354Y-103569853D01*
X188386784Y-103668456D01*
X188222812Y-103736376D01*
X188073512Y-103766073D01*
X188048742Y-103771000D01*
X187871258Y-103771000D01*
X187846488Y-103766073D01*
X187697188Y-103736376D01*
X187533216Y-103668456D01*
X187385646Y-103569853D01*
X187260147Y-103444354D01*
X187161544Y-103296784D01*
X187093624Y-103132812D01*
X187059000Y-102958741D01*
X187059000Y-102781259D01*
X187093624Y-102607188D01*
X187161544Y-102443216D01*
X187260147Y-102295646D01*
X187385646Y-102170147D01*
X187533216Y-102071544D01*
X187697188Y-102003624D01*
X187855231Y-101972188D01*
X187871258Y-101969000D01*
X188048742Y-101969000D01*
X188064769Y-101972188D01*
G37*
G36*
X102348512Y-101338927D02*
G01*
X102497812Y-101368624D01*
X102661784Y-101436544D01*
X102809354Y-101535147D01*
X102934853Y-101660646D01*
X103033456Y-101808216D01*
X103101376Y-101972188D01*
X103136000Y-102146259D01*
X103136000Y-102323741D01*
X103101376Y-102497812D01*
X103033456Y-102661784D01*
X102934853Y-102809354D01*
X102809354Y-102934853D01*
X102661784Y-103033456D01*
X102497812Y-103101376D01*
X102348512Y-103131073D01*
X102323742Y-103136000D01*
X102146258Y-103136000D01*
X102121488Y-103131073D01*
X101972188Y-103101376D01*
X101808216Y-103033456D01*
X101660646Y-102934853D01*
X101535147Y-102809354D01*
X101436544Y-102661784D01*
X101368624Y-102497812D01*
X101334000Y-102323741D01*
X101334000Y-102146259D01*
X101368624Y-101972188D01*
X101436544Y-101808216D01*
X101535147Y-101660646D01*
X101660646Y-101535147D01*
X101808216Y-101436544D01*
X101972188Y-101368624D01*
X102121488Y-101338927D01*
X102146258Y-101334000D01*
X102323742Y-101334000D01*
X102348512Y-101338927D01*
G37*
G36*
X115212395Y-100725546D02*
G01*
X115385466Y-100797234D01*
X115385467Y-100797235D01*
X115541227Y-100901310D01*
X115673690Y-101033773D01*
X115673691Y-101033775D01*
X115777766Y-101189534D01*
X115849454Y-101362605D01*
X115886000Y-101546333D01*
X115886000Y-101733667D01*
X115849454Y-101917395D01*
X115777766Y-102090466D01*
X115777765Y-102090467D01*
X115673690Y-102246227D01*
X115541227Y-102378690D01*
X115462818Y-102431081D01*
X115385466Y-102482766D01*
X115212395Y-102554454D01*
X115028667Y-102591000D01*
X114841333Y-102591000D01*
X114657605Y-102554454D01*
X114484534Y-102482766D01*
X114407182Y-102431081D01*
X114328773Y-102378690D01*
X114196310Y-102246227D01*
X114092235Y-102090467D01*
X114092234Y-102090466D01*
X114020546Y-101917395D01*
X113984000Y-101733667D01*
X113984000Y-101546333D01*
X114020546Y-101362605D01*
X114092234Y-101189534D01*
X114196309Y-101033775D01*
X114196310Y-101033773D01*
X114328773Y-100901310D01*
X114484533Y-100797235D01*
X114484534Y-100797234D01*
X114657605Y-100725546D01*
X114841333Y-100689000D01*
X115028667Y-100689000D01*
X115212395Y-100725546D01*
G37*
G36*
X111873512Y-99603928D02*
G01*
X112022812Y-99633625D01*
X112186784Y-99701545D01*
X112334354Y-99800148D01*
X112459853Y-99925647D01*
X112558456Y-100073217D01*
X112626376Y-100237189D01*
X112656073Y-100386489D01*
X112661000Y-100411259D01*
X112661000Y-100588743D01*
X112659556Y-100596000D01*
X112626376Y-100762813D01*
X112558456Y-100926785D01*
X112459853Y-101074355D01*
X112334354Y-101199854D01*
X112186784Y-101298457D01*
X112022812Y-101366377D01*
X111873512Y-101396074D01*
X111848742Y-101401001D01*
X111671258Y-101401001D01*
X111646488Y-101396074D01*
X111497188Y-101366377D01*
X111333216Y-101298457D01*
X111185646Y-101199854D01*
X111060147Y-101074355D01*
X110961544Y-100926785D01*
X110893624Y-100762813D01*
X110860444Y-100596000D01*
X110859000Y-100588743D01*
X110859000Y-100411259D01*
X110863927Y-100386489D01*
X110893624Y-100237189D01*
X110961544Y-100073217D01*
X111060147Y-99925647D01*
X111185646Y-99800148D01*
X111333216Y-99701545D01*
X111497188Y-99633625D01*
X111646488Y-99603928D01*
X111671258Y-99599001D01*
X111848742Y-99599001D01*
X111873512Y-99603928D01*
G37*
G36*
X109333512Y-99603928D02*
G01*
X109482812Y-99633625D01*
X109646784Y-99701545D01*
X109794354Y-99800148D01*
X109919853Y-99925647D01*
X110018456Y-100073217D01*
X110086376Y-100237189D01*
X110116073Y-100386489D01*
X110121000Y-100411259D01*
X110121000Y-100588743D01*
X110119556Y-100596000D01*
X110086376Y-100762813D01*
X110018456Y-100926785D01*
X109919853Y-101074355D01*
X109794354Y-101199854D01*
X109646784Y-101298457D01*
X109482812Y-101366377D01*
X109333512Y-101396074D01*
X109308742Y-101401001D01*
X109131258Y-101401001D01*
X109106488Y-101396074D01*
X108957188Y-101366377D01*
X108793216Y-101298457D01*
X108645646Y-101199854D01*
X108520147Y-101074355D01*
X108421544Y-100926785D01*
X108353624Y-100762813D01*
X108320444Y-100596000D01*
X108319000Y-100588743D01*
X108319000Y-100411259D01*
X108323927Y-100386489D01*
X108353624Y-100237189D01*
X108421544Y-100073217D01*
X108520147Y-99925647D01*
X108645646Y-99800148D01*
X108793216Y-99701545D01*
X108957188Y-99633625D01*
X109106488Y-99603928D01*
X109131258Y-99599001D01*
X109308742Y-99599001D01*
X109333512Y-99603928D01*
G37*
G36*
X107581000Y-101401001D02*
G01*
X105779000Y-101401001D01*
X105779000Y-99599001D01*
X107581000Y-99599001D01*
X107581000Y-101401001D01*
G37*
G36*
X188064769Y-99432188D02*
G01*
X188222812Y-99463624D01*
X188386784Y-99531544D01*
X188534354Y-99630147D01*
X188659853Y-99755646D01*
X188758456Y-99903216D01*
X188826376Y-100067188D01*
X188856073Y-100216488D01*
X188860191Y-100237189D01*
X188861000Y-100241259D01*
X188861000Y-100418741D01*
X188826376Y-100592812D01*
X188758456Y-100756784D01*
X188659853Y-100904354D01*
X188534354Y-101029853D01*
X188386784Y-101128456D01*
X188222812Y-101196376D01*
X188073512Y-101226073D01*
X188048742Y-101231000D01*
X187871258Y-101231000D01*
X187846488Y-101226073D01*
X187697188Y-101196376D01*
X187533216Y-101128456D01*
X187385646Y-101029853D01*
X187260147Y-100904354D01*
X187161544Y-100756784D01*
X187093624Y-100592812D01*
X187059000Y-100418741D01*
X187059000Y-100241259D01*
X187059810Y-100237189D01*
X187063927Y-100216488D01*
X187093624Y-100067188D01*
X187161544Y-99903216D01*
X187260147Y-99755646D01*
X187385646Y-99630147D01*
X187533216Y-99531544D01*
X187697188Y-99463624D01*
X187855231Y-99432188D01*
X187871258Y-99429000D01*
X188048742Y-99429000D01*
X188064769Y-99432188D01*
G37*
G36*
X102348512Y-98798927D02*
G01*
X102497812Y-98828624D01*
X102661784Y-98896544D01*
X102809354Y-98995147D01*
X102934853Y-99120646D01*
X103033456Y-99268216D01*
X103101376Y-99432188D01*
X103136000Y-99606259D01*
X103136000Y-99783741D01*
X103101376Y-99957812D01*
X103033456Y-100121784D01*
X102934853Y-100269354D01*
X102809354Y-100394853D01*
X102661784Y-100493456D01*
X102497812Y-100561376D01*
X102360230Y-100588742D01*
X102323742Y-100596000D01*
X102146258Y-100596000D01*
X102109770Y-100588742D01*
X101972188Y-100561376D01*
X101808216Y-100493456D01*
X101660646Y-100394853D01*
X101535147Y-100269354D01*
X101436544Y-100121784D01*
X101368624Y-99957812D01*
X101334000Y-99783741D01*
X101334000Y-99606259D01*
X101368624Y-99432188D01*
X101436544Y-99268216D01*
X101535147Y-99120646D01*
X101660646Y-98995147D01*
X101808216Y-98896544D01*
X101972188Y-98828624D01*
X102121488Y-98798927D01*
X102146258Y-98794000D01*
X102323742Y-98794000D01*
X102348512Y-98798927D01*
G37*
G36*
X115212395Y-98225546D02*
G01*
X115385466Y-98297234D01*
X115385467Y-98297235D01*
X115541227Y-98401310D01*
X115673690Y-98533773D01*
X115673691Y-98533775D01*
X115777766Y-98689534D01*
X115849454Y-98862605D01*
X115886000Y-99046333D01*
X115886000Y-99233667D01*
X115849454Y-99417395D01*
X115777766Y-99590466D01*
X115777765Y-99590467D01*
X115673690Y-99746227D01*
X115541227Y-99878690D01*
X115470949Y-99925648D01*
X115385466Y-99982766D01*
X115212395Y-100054454D01*
X115028667Y-100091000D01*
X114841333Y-100091000D01*
X114657605Y-100054454D01*
X114484534Y-99982766D01*
X114399051Y-99925648D01*
X114328773Y-99878690D01*
X114196310Y-99746227D01*
X114092235Y-99590467D01*
X114092234Y-99590466D01*
X114020546Y-99417395D01*
X113984000Y-99233667D01*
X113984000Y-99046333D01*
X114020546Y-98862605D01*
X114092234Y-98689534D01*
X114196309Y-98533775D01*
X114196310Y-98533773D01*
X114328773Y-98401310D01*
X114484533Y-98297235D01*
X114484534Y-98297234D01*
X114657605Y-98225546D01*
X114841333Y-98189000D01*
X115028667Y-98189000D01*
X115212395Y-98225546D01*
G37*
G36*
X122533254Y-95267818D02*
G01*
X122906511Y-95422426D01*
X122906513Y-95422427D01*
X123242436Y-95646884D01*
X123528116Y-95932564D01*
X123674071Y-96151000D01*
X123752574Y-96268489D01*
X123907182Y-96641746D01*
X123986000Y-97037993D01*
X123986000Y-97442007D01*
X123907182Y-97838254D01*
X123818309Y-98052812D01*
X123752573Y-98211513D01*
X123528116Y-98547436D01*
X123242436Y-98833116D01*
X122906513Y-99057573D01*
X122906512Y-99057574D01*
X122906511Y-99057574D01*
X122533254Y-99212182D01*
X122137007Y-99291000D01*
X121732993Y-99291000D01*
X121336746Y-99212182D01*
X120963489Y-99057574D01*
X120963488Y-99057574D01*
X120963487Y-99057573D01*
X120627564Y-98833116D01*
X120341884Y-98547436D01*
X120117427Y-98211513D01*
X120051691Y-98052812D01*
X119962818Y-97838254D01*
X119884000Y-97442007D01*
X119884000Y-97037993D01*
X119962818Y-96641746D01*
X120117426Y-96268489D01*
X120195930Y-96151000D01*
X120341884Y-95932564D01*
X120627564Y-95646884D01*
X120963487Y-95422427D01*
X120963489Y-95422426D01*
X121336746Y-95267818D01*
X121732993Y-95189000D01*
X122137007Y-95189000D01*
X122533254Y-95267818D01*
G37*
G36*
X188073512Y-96893927D02*
G01*
X188222812Y-96923624D01*
X188386784Y-96991544D01*
X188534354Y-97090147D01*
X188659853Y-97215646D01*
X188758456Y-97363216D01*
X188826376Y-97527188D01*
X188861000Y-97701259D01*
X188861000Y-97878741D01*
X188826376Y-98052812D01*
X188758456Y-98216784D01*
X188659853Y-98364354D01*
X188534354Y-98489853D01*
X188386784Y-98588456D01*
X188222812Y-98656376D01*
X188073512Y-98686073D01*
X188048742Y-98691000D01*
X187871258Y-98691000D01*
X187846488Y-98686073D01*
X187697188Y-98656376D01*
X187533216Y-98588456D01*
X187385646Y-98489853D01*
X187260147Y-98364354D01*
X187161544Y-98216784D01*
X187093624Y-98052812D01*
X187059000Y-97878741D01*
X187059000Y-97701259D01*
X187093624Y-97527188D01*
X187161544Y-97363216D01*
X187260147Y-97215646D01*
X187385646Y-97090147D01*
X187533216Y-96991544D01*
X187697188Y-96923624D01*
X187846488Y-96893927D01*
X187871258Y-96889000D01*
X188048742Y-96889000D01*
X188073512Y-96893927D01*
G37*
G36*
X188861000Y-96151000D02*
G01*
X187059000Y-96151000D01*
X187059000Y-94349000D01*
X188861000Y-94349000D01*
X188861000Y-96151000D01*
G37*
G36*
X126821564Y-80324389D02*
G01*
X127012833Y-80403615D01*
X127012835Y-80403616D01*
X127184973Y-80518635D01*
X127331365Y-80665027D01*
X127446385Y-80837167D01*
X127525611Y-81028436D01*
X127566000Y-81231484D01*
X127566000Y-81438516D01*
X127525611Y-81641564D01*
X127446385Y-81832833D01*
X127446384Y-81832835D01*
X127331365Y-82004973D01*
X127184973Y-82151365D01*
X127012835Y-82266384D01*
X127012834Y-82266385D01*
X127012833Y-82266385D01*
X126821564Y-82345611D01*
X126618516Y-82386000D01*
X126411484Y-82386000D01*
X126208436Y-82345611D01*
X126017167Y-82266385D01*
X126017166Y-82266385D01*
X126017165Y-82266384D01*
X125845027Y-82151365D01*
X125698635Y-82004973D01*
X125583616Y-81832835D01*
X125583615Y-81832833D01*
X125504389Y-81641564D01*
X125464000Y-81438516D01*
X125464000Y-81231484D01*
X125504389Y-81028436D01*
X125583615Y-80837167D01*
X125698635Y-80665027D01*
X125845027Y-80518635D01*
X126017165Y-80403616D01*
X126017167Y-80403615D01*
X126208436Y-80324389D01*
X126411484Y-80284000D01*
X126618516Y-80284000D01*
X126821564Y-80324389D01*
G37*
G36*
X120321564Y-80324389D02*
G01*
X120512833Y-80403615D01*
X120512835Y-80403616D01*
X120684973Y-80518635D01*
X120831365Y-80665027D01*
X120946385Y-80837167D01*
X121025611Y-81028436D01*
X121066000Y-81231484D01*
X121066000Y-81438516D01*
X121025611Y-81641564D01*
X120946385Y-81832833D01*
X120946384Y-81832835D01*
X120831365Y-82004973D01*
X120684973Y-82151365D01*
X120512835Y-82266384D01*
X120512834Y-82266385D01*
X120512833Y-82266385D01*
X120321564Y-82345611D01*
X120118516Y-82386000D01*
X119911484Y-82386000D01*
X119708436Y-82345611D01*
X119517167Y-82266385D01*
X119517166Y-82266385D01*
X119517165Y-82266384D01*
X119345027Y-82151365D01*
X119198635Y-82004973D01*
X119083616Y-81832835D01*
X119083615Y-81832833D01*
X119004389Y-81641564D01*
X118964000Y-81438516D01*
X118964000Y-81231484D01*
X119004389Y-81028436D01*
X119083615Y-80837167D01*
X119198635Y-80665027D01*
X119345027Y-80518635D01*
X119517165Y-80403616D01*
X119517167Y-80403615D01*
X119708436Y-80324389D01*
X119911484Y-80284000D01*
X120118516Y-80284000D01*
X120321564Y-80324389D01*
G37*
G36*
X102300590Y-80053877D02*
G01*
X102399894Y-80073630D01*
X102540207Y-80131749D01*
X102666485Y-80216126D01*
X102773876Y-80323517D01*
X102858253Y-80449795D01*
X102916372Y-80590108D01*
X102946001Y-80739064D01*
X102946001Y-80890938D01*
X102916372Y-81039894D01*
X102858253Y-81180207D01*
X102773876Y-81306485D01*
X102666485Y-81413876D01*
X102540207Y-81498253D01*
X102399894Y-81556372D01*
X102300590Y-81576125D01*
X102250939Y-81586001D01*
X102099063Y-81586001D01*
X102049412Y-81576125D01*
X101950108Y-81556372D01*
X101809795Y-81498253D01*
X101683517Y-81413876D01*
X101576126Y-81306485D01*
X101491749Y-81180207D01*
X101433630Y-81039894D01*
X101404001Y-80890938D01*
X101404001Y-80739064D01*
X101433630Y-80590108D01*
X101491749Y-80449795D01*
X101576126Y-80323517D01*
X101683517Y-80216126D01*
X101809795Y-80131749D01*
X101950108Y-80073630D01*
X102049412Y-80053877D01*
X102099063Y-80044001D01*
X102250939Y-80044001D01*
X102300590Y-80053877D01*
G37*
G36*
X104840590Y-77513877D02*
G01*
X104939894Y-77533630D01*
X105080207Y-77591749D01*
X105206485Y-77676126D01*
X105313876Y-77783517D01*
X105398253Y-77909795D01*
X105456372Y-78050108D01*
X105456372Y-78050110D01*
X105484943Y-78193742D01*
X105486001Y-78199064D01*
X105486001Y-78350938D01*
X105456372Y-78499894D01*
X105398253Y-78640207D01*
X105313876Y-78766485D01*
X105206485Y-78873876D01*
X105080207Y-78958253D01*
X104939894Y-79016372D01*
X104840590Y-79036125D01*
X104790939Y-79046001D01*
X104639063Y-79046001D01*
X104589412Y-79036125D01*
X104490108Y-79016372D01*
X104349795Y-78958253D01*
X104223517Y-78873876D01*
X104116126Y-78766485D01*
X104031749Y-78640207D01*
X103973630Y-78499894D01*
X103944001Y-78350938D01*
X103944001Y-78199064D01*
X103945060Y-78193742D01*
X103973630Y-78050110D01*
X103973630Y-78050108D01*
X104031749Y-77909795D01*
X104116126Y-77783517D01*
X104223517Y-77676126D01*
X104349795Y-77591749D01*
X104490108Y-77533630D01*
X104589412Y-77513877D01*
X104639063Y-77504001D01*
X104790939Y-77504001D01*
X104840590Y-77513877D01*
G37*
G36*
X111391000Y-79006000D02*
G01*
X109589000Y-79006000D01*
X109589000Y-77204000D01*
X111391000Y-77204000D01*
X111391000Y-79006000D01*
G37*
G36*
X113143512Y-77208927D02*
G01*
X113292812Y-77238624D01*
X113456784Y-77306544D01*
X113604354Y-77405147D01*
X113729853Y-77530646D01*
X113828456Y-77678216D01*
X113896376Y-77842188D01*
X113926073Y-77991488D01*
X113931000Y-78016258D01*
X113931000Y-78193742D01*
X113929941Y-78199064D01*
X113896376Y-78367812D01*
X113828456Y-78531784D01*
X113729853Y-78679354D01*
X113604354Y-78804853D01*
X113456784Y-78903456D01*
X113292812Y-78971376D01*
X113143512Y-79001073D01*
X113118742Y-79006000D01*
X112941258Y-79006000D01*
X112916488Y-79001073D01*
X112767188Y-78971376D01*
X112603216Y-78903456D01*
X112455646Y-78804853D01*
X112330147Y-78679354D01*
X112231544Y-78531784D01*
X112163624Y-78367812D01*
X112130059Y-78199064D01*
X112129000Y-78193742D01*
X112129000Y-78016258D01*
X112133927Y-77991488D01*
X112163624Y-77842188D01*
X112231544Y-77678216D01*
X112330147Y-77530646D01*
X112455646Y-77405147D01*
X112603216Y-77306544D01*
X112767188Y-77238624D01*
X112916488Y-77208927D01*
X112941258Y-77204000D01*
X113118742Y-77204000D01*
X113143512Y-77208927D01*
G37*
G36*
X115683512Y-77208927D02*
G01*
X115832812Y-77238624D01*
X115996784Y-77306544D01*
X116144354Y-77405147D01*
X116269853Y-77530646D01*
X116368456Y-77678216D01*
X116436376Y-77842188D01*
X116466073Y-77991488D01*
X116471000Y-78016258D01*
X116471000Y-78193742D01*
X116469941Y-78199064D01*
X116436376Y-78367812D01*
X116368456Y-78531784D01*
X116269853Y-78679354D01*
X116144354Y-78804853D01*
X115996784Y-78903456D01*
X115832812Y-78971376D01*
X115683512Y-79001073D01*
X115658742Y-79006000D01*
X115481258Y-79006000D01*
X115456488Y-79001073D01*
X115307188Y-78971376D01*
X115143216Y-78903456D01*
X114995646Y-78804853D01*
X114870147Y-78679354D01*
X114771544Y-78531784D01*
X114703624Y-78367812D01*
X114670059Y-78199064D01*
X114669000Y-78193742D01*
X114669000Y-78016258D01*
X114673927Y-77991488D01*
X114703624Y-77842188D01*
X114771544Y-77678216D01*
X114870147Y-77530646D01*
X114995646Y-77405147D01*
X115143216Y-77306544D01*
X115307188Y-77238624D01*
X115456488Y-77208927D01*
X115481258Y-77204000D01*
X115658742Y-77204000D01*
X115683512Y-77208927D01*
G37*
G36*
X126821564Y-75824389D02*
G01*
X127012833Y-75903615D01*
X127012835Y-75903616D01*
X127097058Y-75959892D01*
X127184973Y-76018635D01*
X127331365Y-76165027D01*
X127446385Y-76337167D01*
X127525611Y-76528436D01*
X127566000Y-76731484D01*
X127566000Y-76938516D01*
X127525611Y-77141564D01*
X127485407Y-77238625D01*
X127446384Y-77332835D01*
X127331365Y-77504973D01*
X127184973Y-77651365D01*
X127012835Y-77766384D01*
X127012834Y-77766385D01*
X127012833Y-77766385D01*
X126821564Y-77845611D01*
X126618516Y-77886000D01*
X126411484Y-77886000D01*
X126208436Y-77845611D01*
X126017167Y-77766385D01*
X126017166Y-77766385D01*
X126017165Y-77766384D01*
X125845027Y-77651365D01*
X125698635Y-77504973D01*
X125583616Y-77332835D01*
X125544593Y-77238625D01*
X125504389Y-77141564D01*
X125464000Y-76938516D01*
X125464000Y-76731484D01*
X125504389Y-76528436D01*
X125583615Y-76337167D01*
X125698635Y-76165027D01*
X125845027Y-76018635D01*
X125932942Y-75959892D01*
X126017165Y-75903616D01*
X126017167Y-75903615D01*
X126208436Y-75824389D01*
X126411484Y-75784000D01*
X126618516Y-75784000D01*
X126821564Y-75824389D01*
G37*
G36*
X120321564Y-75824389D02*
G01*
X120512833Y-75903615D01*
X120512835Y-75903616D01*
X120597058Y-75959892D01*
X120684973Y-76018635D01*
X120831365Y-76165027D01*
X120946385Y-76337167D01*
X121025611Y-76528436D01*
X121066000Y-76731484D01*
X121066000Y-76938516D01*
X121025611Y-77141564D01*
X120985407Y-77238625D01*
X120946384Y-77332835D01*
X120831365Y-77504973D01*
X120684973Y-77651365D01*
X120512835Y-77766384D01*
X120512834Y-77766385D01*
X120512833Y-77766385D01*
X120321564Y-77845611D01*
X120118516Y-77886000D01*
X119911484Y-77886000D01*
X119708436Y-77845611D01*
X119517167Y-77766385D01*
X119517166Y-77766385D01*
X119517165Y-77766384D01*
X119345027Y-77651365D01*
X119198635Y-77504973D01*
X119083616Y-77332835D01*
X119044593Y-77238625D01*
X119004389Y-77141564D01*
X118964000Y-76938516D01*
X118964000Y-76731484D01*
X119004389Y-76528436D01*
X119083615Y-76337167D01*
X119198635Y-76165027D01*
X119345027Y-76018635D01*
X119432942Y-75959892D01*
X119517165Y-75903616D01*
X119517167Y-75903615D01*
X119708436Y-75824389D01*
X119911484Y-75784000D01*
X120118516Y-75784000D01*
X120321564Y-75824389D01*
G37*
G36*
X102300590Y-74973877D02*
G01*
X102399894Y-74993630D01*
X102540207Y-75051749D01*
X102666485Y-75136126D01*
X102773876Y-75243517D01*
X102858253Y-75369795D01*
X102916372Y-75510108D01*
X102916372Y-75510110D01*
X102946001Y-75659063D01*
X102946001Y-75810939D01*
X102943325Y-75824390D01*
X102916372Y-75959894D01*
X102858253Y-76100207D01*
X102773876Y-76226485D01*
X102666485Y-76333876D01*
X102540207Y-76418253D01*
X102399894Y-76476372D01*
X102300590Y-76496125D01*
X102250939Y-76506001D01*
X102099063Y-76506001D01*
X102049412Y-76496125D01*
X101950108Y-76476372D01*
X101809795Y-76418253D01*
X101683517Y-76333876D01*
X101576126Y-76226485D01*
X101491749Y-76100207D01*
X101433630Y-75959894D01*
X101406677Y-75824390D01*
X101404001Y-75810939D01*
X101404001Y-75659063D01*
X101433630Y-75510110D01*
X101433630Y-75510108D01*
X101491749Y-75369795D01*
X101576126Y-75243517D01*
X101683517Y-75136126D01*
X101809795Y-75051749D01*
X101950108Y-74993630D01*
X102049412Y-74973877D01*
X102099063Y-74964001D01*
X102250939Y-74964001D01*
X102300590Y-74973877D01*
G37*
G36*
X108851000Y-56146000D02*
G01*
X107049000Y-56146000D01*
X107049000Y-54344000D01*
X108851000Y-54344000D01*
X108851000Y-56146000D01*
G37*
G36*
X108063512Y-51808927D02*
G01*
X108212812Y-51838624D01*
X108376784Y-51906544D01*
X108524354Y-52005147D01*
X108649853Y-52130646D01*
X108748456Y-52278216D01*
X108816376Y-52442188D01*
X108851000Y-52616259D01*
X108851000Y-52793741D01*
X108816376Y-52967812D01*
X108748456Y-53131784D01*
X108649853Y-53279354D01*
X108524354Y-53404853D01*
X108376784Y-53503456D01*
X108212812Y-53571376D01*
X108063512Y-53601073D01*
X108038742Y-53606000D01*
X107861258Y-53606000D01*
X107836488Y-53601073D01*
X107687188Y-53571376D01*
X107523216Y-53503456D01*
X107375646Y-53404853D01*
X107250147Y-53279354D01*
X107151544Y-53131784D01*
X107083624Y-52967812D01*
X107049000Y-52793741D01*
X107049000Y-52616259D01*
X107083624Y-52442188D01*
X107151544Y-52278216D01*
X107250147Y-52130646D01*
X107375646Y-52005147D01*
X107523216Y-51906544D01*
X107687188Y-51838624D01*
X107836488Y-51808927D01*
X107861258Y-51804000D01*
X108038742Y-51804000D01*
X108063512Y-51808927D01*
G37*
G36*
X187324239Y-46976467D02*
G01*
X187638282Y-47038934D01*
X188229926Y-47284001D01*
X188762392Y-47639784D01*
X189215216Y-48092608D01*
X189570999Y-48625074D01*
X189816066Y-49216718D01*
X189816066Y-49216719D01*
X189941000Y-49844803D01*
X189941000Y-50485197D01*
X189878533Y-50799239D01*
X189816066Y-51113282D01*
X189570999Y-51704926D01*
X189215216Y-52237392D01*
X188762392Y-52690216D01*
X188229926Y-53045999D01*
X187638282Y-53291066D01*
X187324239Y-53353533D01*
X187010197Y-53416000D01*
X186369803Y-53416000D01*
X186055761Y-53353533D01*
X185741718Y-53291066D01*
X185150074Y-53045999D01*
X184617608Y-52690216D01*
X184164784Y-52237392D01*
X183809001Y-51704926D01*
X183563934Y-51113282D01*
X183501467Y-50799239D01*
X183439000Y-50485197D01*
X183439000Y-49844803D01*
X183563934Y-49216719D01*
X183563934Y-49216718D01*
X183809001Y-48625074D01*
X184164784Y-48092608D01*
X184617608Y-47639784D01*
X185150074Y-47284001D01*
X185741718Y-47038934D01*
X186055761Y-46976467D01*
X186369803Y-46914000D01*
X187010197Y-46914000D01*
X187324239Y-46976467D01*
G37*
M02*
