M48
; DRILL file {KiCad (5.1.5)-3} date 06/11/20 14:47:44
; FORMAT={-:-/ absolute / inch / decimal}
; #@! TF.CreationDate,2020-06-11T14:47:44+02:00
; #@! TF.GenerationSoftware,Kicad,Pcbnew,(5.1.5)-3
; #@! TF.FileFunction,Plated,1,2,PTH
FMAT,2
INCH
T1C0.0157
T2C0.0197
T3C0.0315
T4C0.0394
T5C0.0433
T6C0.1260
%
G90
G05
T1
X3.75Y-3.45
X3.8125Y-2.7
X3.8125Y-2.7375
X3.8125Y-2.775
X3.8375Y-2.325
X3.8375Y-2.3625
X3.8375Y-2.4
X3.9Y-3.4875
X3.9Y-3.6875
X4.0125Y-2.3125
X4.0125Y-2.35
X4.0125Y-2.3875
X4.0875Y-3.4375
X4.1875Y-3.675
X4.2Y-3.5125
X4.35Y-3.5
X4.4Y-3.4125
X4.45Y-3.4375
X4.55Y-2.7375
X4.56Y-3.675
X4.65Y-2.9375
X4.675Y-3.4875
X4.675Y-3.925
X4.775Y-3.4375
X4.8875Y-3.5125
X4.9125Y-2.025
X4.9125Y-2.0625
X4.9125Y-2.1
X4.9625Y-3.4375
X4.9625Y-3.5875
X5.025Y-2.65
X5.0625Y-1.9625
X5.125Y-2.725
X5.125Y-3.025
X5.125Y-3.475
X5.15Y-4.175
X5.1625Y-3.475
X5.175Y-3.877
X5.2076Y-2.6076
X5.2625Y-4.0
X5.3Y-3.8
X5.375Y-4.05
X5.3862Y-2.6746
X5.3961Y-2.7508
X5.4Y-2.825
X5.4001Y-2.7896
X5.4125Y-3.8875
X5.4216Y-2.677
X5.4313Y-2.7148
X5.4375Y-3.9375
X5.4625Y-3.5125
X5.475Y-2.675
X5.4959Y-2.7616
X5.5375Y-2.9375
X5.575Y-2.825
X5.65Y-2.6366
X5.69Y-2.7478
X5.7Y-2.9
X5.72Y-2.84
X5.725Y-2.8
X5.725Y-3.25
X5.7375Y-3.5875
X5.7625Y-3.3
X5.775Y-3.2
X5.8Y-3.95
X5.801Y-2.8872
X5.8125Y-2.525
X5.8125Y-2.9375
X5.825Y-2.7
X5.825Y-2.775
X5.85Y-3.7
X5.8527Y-2.8973
X5.8625Y-3.0625
X5.8625Y-3.3375
X5.875Y-2.5
X5.8895Y-2.5884
X5.89Y-2.635
X5.9Y-2.725
X5.929Y-2.8872
X5.9326Y-3.2701
X5.9575Y-4.0798
X5.9625Y-2.5116
X5.975Y-3.625
X6.0Y-4.0875
X6.0125Y-3.3375
X6.0125Y-3.4625
X6.05Y-2.4875
X6.05Y-3.7125
X6.0875Y-2.7125
X6.0973Y-2.9378
X6.1Y-4.1125
X6.1183Y-2.5366
X6.125Y-4.0375
X6.1326Y-3.0504
X6.1433Y-3.6092
X6.15Y-2.2375
X6.1504Y-4.0
X6.1532Y-2.8134
X6.1625Y-3.4625
X6.1674Y-3.2201
X6.1745Y-2.9006
X6.175Y-3.625
X6.1769Y-2.7179
X6.2105Y-2.9427
X6.2125Y-4.125
X6.2182Y-2.7479
X6.225Y-3.05
X6.2375Y-2.2625
X6.2525Y-2.7389
X6.275Y-3.95
X6.2931Y-2.9069
X6.3Y-2.2625
X6.3Y-4.15
X6.3062Y-3.3438
X6.325Y-2.0
X6.3357Y-2.74
X6.3368Y-2.863
X6.3384Y-3.9779
X6.35Y-3.075
X6.35Y-3.175
X6.3517Y-3.1242
X6.3625Y-1.875
X6.375Y-2.0125
X6.375Y-2.275
X6.375Y-2.5
X6.3817Y-3.3749
X6.39Y-2.92
X6.4Y-3.325
X6.4Y-3.525
X6.403Y-3.4032
X6.4031Y-3.4624
X6.41Y-2.71
X6.4125Y-2.6375
X6.4125Y-3.8125
X6.42Y-2.81
X6.425Y-4.3375
X6.4375Y-3.9375
X6.4431Y-2.8824
X6.4523Y-2.7061
X6.475Y-2.0
X6.475Y-2.05
X6.48Y-3.83
X6.49Y-2.75
X6.4906Y-2.8619
X6.5082Y-3.6956
X6.5125Y-2.05
X6.525Y-2.725
X6.525Y-2.925
X6.525Y-3.15
X6.525Y-3.1875
X6.525Y-3.325
X6.525Y-3.5
X6.5375Y-2.175
X6.55Y-3.2375
X6.55Y-3.725
X6.5746Y-3.9337
X6.575Y-2.0125
X6.5875Y-3.4754
X6.5918Y-3.5544
X6.6Y-2.475
X6.6163Y-3.388
X6.625Y-2.1625
X6.625Y-2.3375
X6.625Y-2.725
X6.625Y-2.975
X6.625Y-3.15
X6.625Y-3.7125
X6.625Y-3.75
X6.6265Y-2.8616
X6.6375Y-3.9754
X6.65Y-3.1
X6.675Y-2.15
X6.675Y-2.3
X6.675Y-2.675
X6.675Y-3.5
X6.675Y-3.7125
X6.6875Y-2.5366
X6.6875Y-2.8025
X6.7Y-1.9379
X6.7125Y-3.9875
X6.7201Y-3.2424
X6.725Y-2.2875
X6.725Y-2.3625
X6.725Y-2.4875
X6.75Y-3.3
X6.75Y-3.7125
X6.7532Y-3.1739
X6.7551Y-2.8048
X6.7634Y-3.0875
X6.7665Y-2.873
X6.775Y-2.1524
X6.775Y-2.275
X6.775Y-3.35
X6.775Y-3.5
X6.7875Y-2.5125
X6.7875Y-3.9875
X6.82Y-2.79
X6.825Y-2.175
X6.825Y-2.4875
X6.825Y-3.6625
X6.825Y-3.7125
X6.8297Y-2.0982
X6.86Y-2.36
X6.8625Y-2.0121
X6.8625Y-3.9875
X6.9Y-2.69
X6.9Y-2.96
X6.9Y-3.075
X6.9Y-3.275
X6.9Y-3.7125
X6.9097Y-3.3909
X6.9125Y-3.5
X6.925Y-2.5366
X6.925Y-3.165
X6.925Y-3.325
X6.9375Y-2.225
X6.9375Y-2.3125
X6.9375Y-3.0
X6.9375Y-3.9875
X6.9379Y-2.8416
X6.9428Y-2.7924
X6.95Y-2.875
X6.95Y-3.05
X6.95Y-3.525
X6.9625Y-2.175
X6.9634Y-3.2526
X6.975Y-2.7625
X6.975Y-3.7125
X7.0125Y-3.9875
X7.0248Y-3.0086
X7.025Y-3.2125
X7.05Y-1.8875
X7.05Y-1.9875
X7.05Y-2.05
X7.05Y-3.7125
X7.0534Y-1.9442
X7.0625Y-2.725
X7.075Y-3.2781
X7.0875Y-3.9875
X7.1Y-2.65
X7.1Y-3.16
X7.1Y-3.2
X7.1Y-3.3875
X7.1Y-3.465
X7.1Y-3.5004
X7.1Y-3.5875
X7.1101Y-3.0732
X7.1125Y-2.975
X7.125Y-2.8
X7.125Y-3.7125
X7.15Y-2.5366
X7.15Y-2.875
X7.15Y-2.9375
X7.1538Y-3.1004
X7.1621Y-3.1683
X7.1621Y-3.4375
X7.1625Y-3.9875
X7.1963Y-2.3129
X7.2Y-2.1
X7.2039Y-2.3625
X7.2125Y-1.875
X7.2134Y-2.8125
X7.2201Y-3.225
X7.25Y-2.3129
X7.25Y-2.3625
X7.275Y-2.1411
X7.2875Y-3.275
X7.2949Y-3.2
X7.2999Y-3.4749
X7.3Y-2.5125
X7.3Y-2.7
X7.3Y-2.975
X7.3Y-3.5875
X7.301Y-3.0221
X7.325Y-2.8375
X7.325Y-2.875
X7.325Y-2.9375
X7.325Y-3.05
X7.325Y-3.25
X7.325Y-3.5
X7.33Y-3.3
X7.3375Y-2.15
X7.3375Y-2.3375
X7.3375Y-3.1625
X7.35Y-2.2996
X7.35Y-2.4875
X7.35Y-2.65
X7.35Y-3.4375
X7.4Y-2.3
X7.42Y-3.11
X7.4366Y-2.998
X7.4375Y-3.2781
X7.45Y-2.575
X7.475Y-2.5
X7.475Y-3.5875
T2
X7.2555Y-1.975
X7.2832Y-1.9082
X7.2832Y-2.0418
X7.35Y-1.8805
X7.35Y-2.0695
X7.4168Y-1.9082
X7.4168Y-2.0418
X7.4445Y-1.975
X3.7805Y-4.4
X3.8082Y-4.3332
X3.8082Y-4.4668
X3.875Y-4.3055
X3.875Y-4.4945
X3.9418Y-4.3332
X3.9418Y-4.4668
X3.9695Y-4.4
T3
X4.0226Y-2.9817
X4.0226Y-3.1817
X4.1226Y-3.0817
T4
X4.35Y-3.075
X4.45Y-3.075
X4.55Y-3.075
X4.525Y-3.9031
X4.525Y-4.0016
X4.525Y-4.1
X4.2Y-3.9567
X4.3Y-3.9567
X4.4Y-3.9567
X4.025Y-3.925
X4.025Y-4.025
X4.025Y-4.125
X7.4Y-3.75
X7.4Y-3.85
X7.4Y-3.95
X7.4Y-4.05
X7.4Y-4.15
X7.4Y-4.25
X7.4Y-4.35
X7.4Y-4.45
X4.25Y-2.075
X4.25Y-2.175
T5
X4.725Y-3.025
X4.725Y-3.2022
X4.9809Y-3.025
X4.9809Y-3.2022
T6
X7.35Y-1.975
X3.875Y-4.4
T0
M30
